<?xml version="1.0" encoding="UTF-8"?>
<!DOCTYPE svg PUBLIC "-//W3C//DTD SVG 1.1//EN" "http://www.w3.org/Graphics/SVG/1.1/DTD/svg11.dtd">
<svg version="1.1" xmlns="http://www.w3.org/2000/svg" xmlns:xlink="http://www.w3.org/1999/xlink" x="0" y="0" width="150" height="150" viewBox="0, 0, 150, 150">
  <g id="Layer_1">
    <path d="M109.049,111.457 L102.342,111.457 L102.342,98.697 C102.342,88.484 96.64,79.58 88.227,75 C96.64,70.42 102.342,61.516 102.342,51.303 L102.342,38.543 L109.073,38.543 C110.872,38.543 112.345,37.071 112.345,35.272 C112.345,33.472 110.872,32 109.073,32 L40.927,32 C39.128,32 37.655,33.472 37.655,35.272 C37.655,37.071 39.128,38.543 40.927,38.543 L48.359,38.543 L48.359,51.303 C48.359,61.516 54.061,70.42 62.474,75 C54.084,79.58 48.359,88.484 48.359,98.72 L48.359,111.457 L40.927,111.457 C39.128,111.457 37.655,112.929 37.655,114.728 C37.655,116.528 39.128,118 40.927,118 L109.049,118 C110.849,118 112.321,116.528 112.321,114.728 C112.321,112.929 110.849,111.457 109.049,111.457 z M54.902,51.303 L54.902,38.543 L95.799,38.543 L95.799,51.303 C95.799,62.567 86.638,71.728 75.351,71.728 C64.086,71.728 54.902,62.567 54.902,51.303 z M95.799,111.457 L54.902,111.457 L54.902,98.697 C54.902,87.433 64.063,78.272 75.374,78.272 C86.638,78.272 95.799,87.433 95.799,98.697 L95.799,111.457 z" fill="#000000"/>
  </g>
</svg>
